<?xml version="1.0" encoding="utf-8"?>
<!-- Generator: Adobe Illustrator 27.5.0, SVG Export Plug-In . SVG Version: 6.00 Build 0)  -->
<svg version="1.1" id="Layer_1" xmlns="http://www.w3.org/2000/svg" xmlns:xlink="http://www.w3.org/1999/xlink" x="0px" y="0px"
	 viewBox="0 0 800 800" style="enable-background:new 0 0 800 800;" xml:space="preserve">
<path style="fill:#C8453B;" d="M531.01,752.66H257.76c-119.31,0-216.03-96.72-216.03-216.03V263.37
	c0-119.31,96.72-216.03,216.03-216.03h273.25c119.31,0,216.03,96.72,216.03,216.03v273.25
	C747.04,655.94,650.32,752.66,531.01,752.66z"/>
<path style="fill:#E9E2D1;" d="M569.41,237.66c-32.66-15.16-67.55-26.31-104.2-32.66c-4.51,7.99-9.83,18.84-13.3,27.64
	c-38.79-5.84-77.38-5.84-115.37,0c-3.7-8.79-9.01-19.66-13.53-27.64c-36.66,6.36-71.54,17.52-104.2,32.66
	c-65.93,99.48-83.73,196.51-74.94,291.93c43.83,32.66,86.09,52.4,127.85,65.41c10.35-14.12,19.43-29.26,27.35-44.94
	c-15.16-5.61-29.49-12.78-43.08-20.99c3.7-2.66,7.17-5.61,10.64-8.28c83.21,38.79,173.31,38.79,255.5,0
	c3.47,2.95,6.95,5.61,10.64,8.28c-13.53,8.28-28.16,15.16-43.08,20.99c7.99,15.66,17,30.82,27.35,44.94
	c41.76-13.01,84.25-32.66,127.85-65.41c10.35-110.85-17.81-206.79-74.94-291.86h-0.52v-0.07L569.41,237.66L569.41,237.66z
	 M310.21,471.14c-24.98,0-45.46-23.13-45.46-51.59c0-28.46,19.95-51.59,45.46-51.59c25.49,0,45.75,23.13,45.46,51.59
	C355.67,447.7,335.79,471.14,310.21,471.14z M477.99,471.14c-24.98,0-45.46-23.13-45.46-51.59c0-28.46,19.95-51.59,45.46-51.59
	c25.49,0,45.75,23.13,45.46,51.59C523.43,447.7,503.48,471.14,477.99,471.14z"/>
</svg>
