<svg width="60" height="60" viewBox="0 0 60 60" fill="none" xmlns="http://www.w3.org/2000/svg">
<path d="M39.8259 56.4498H19.3321C10.3839 56.4498 3.12988 49.1958 3.12988 40.2475V19.753C3.12988 10.8048 10.3839 3.55078 19.3321 3.55078H39.8259C48.7741 3.55078 56.0281 10.8048 56.0281 19.753V40.2468C56.0281 49.1958 48.7741 56.4498 39.8259 56.4498Z" fill="#C8453B"/>
<path d="M42.7056 17.8245C40.2561 16.6875 37.6394 15.8513 34.8906 15.375C34.5524 15.9743 34.1534 16.788 33.8931 17.448C30.9839 17.01 28.0896 17.01 25.2404 17.448C24.9629 16.7888 24.5646 15.9735 24.2256 15.375C21.4761 15.852 18.8601 16.689 16.4106 17.8245C11.4659 25.2855 10.1309 32.5628 10.7901 39.7193C14.0774 42.1688 17.2469 43.6493 20.3789 44.625C21.1551 43.566 21.8361 42.4305 22.4301 41.2545C21.2931 40.8338 20.2184 40.296 19.1991 39.6803C19.4766 39.4808 19.7369 39.2595 19.9971 39.0592C26.2379 41.9685 32.9954 41.9685 39.1596 39.0592C39.4199 39.2805 39.6809 39.48 39.9576 39.6803C38.9429 40.3013 37.8456 40.8173 36.7266 41.2545C37.3259 42.429 38.0016 43.566 38.7779 44.625C41.9098 43.6493 45.0966 42.1755 48.3666 39.7193C49.1429 31.4055 47.0309 24.21 42.7461 17.8297H42.7071V17.8245H42.7056ZM23.2656 35.3355C21.3921 35.3355 19.8561 33.6007 19.8561 31.4662C19.8561 29.3317 21.3524 27.597 23.2656 27.597C25.1774 27.597 26.6969 29.3317 26.6751 31.4662C26.6751 33.5775 25.1841 35.3355 23.2656 35.3355ZM35.8491 35.3355C33.9756 35.3355 32.4396 33.6007 32.4396 31.4662C32.4396 29.3317 33.9359 27.597 35.8491 27.597C37.7609 27.597 39.2804 29.3317 39.2586 31.4662C39.2571 33.5775 37.7609 35.3355 35.8491 35.3355Z" fill="#E9E2D1"/>
</svg>
