<svg width="800" height="800" viewBox="0 0 800 800" fill="none" xmlns="http://www.w3.org/2000/svg">
<path d="M536.62 752.66H263.38C144.07 752.66 47.3501 655.94 47.3501 536.63V263.37C47.3501 144.06 144.07 47.3398 263.38 47.3398H536.63C655.94 47.3398 752.66 144.06 752.66 263.37V536.62C752.66 655.94 655.93 752.66 536.62 752.66Z" fill="#C8453B"/>
<path d="M508.51 323.08L539.04 359.08C542.53 363.18 545.57 366.37 546.94 368.35C556.05 377.46 561.22 389.77 561.22 402.53C560.31 417.57 550.59 427.9 541.47 438.99L520.05 464.05L508.96 477.11C508.5 477.57 508.35 478.17 508.2 478.78C508.05 479.39 508.2 480 508.5 480.45C508.8 481.06 509.11 481.51 509.72 481.82C510.18 482.12 510.78 482.28 511.39 482.28H622.89C639.9 482.28 661.32 496.56 660.11 518.28C660.11 528.15 656.01 537.57 649.02 544.56C641.88 551.55 632.31 555.5 622.28 555.5H447.59C436.05 555.5 405.21 556.72 396.55 530.44C394.73 524.97 394.42 519.05 395.79 513.43C398.37 505.08 402.32 497.18 407.49 490.19C416.3 477.13 425.72 464.21 435.14 451.61C447.29 435.05 459.6 419.1 471.9 402.24C472.36 401.63 472.51 401.02 472.51 400.27C472.51 399.51 472.21 398.9 471.9 398.3L427.54 346.2C427.24 345.9 426.93 345.59 426.48 345.29C426.02 345.14 425.57 344.99 425.11 344.99C424.65 344.99 424.2 345.14 423.74 345.29C423.28 345.44 422.98 345.75 422.68 346.2C410.83 362 358.73 432.03 347.64 446.31C336.55 460.44 309.21 461.35 294.02 446.31L224.6 377.65C224.14 377.19 223.54 376.89 222.93 376.74C222.32 376.59 221.71 376.74 221.11 376.89C220.5 377.19 220.05 377.5 219.74 378.11C219.44 378.57 219.13 379.17 219.28 379.78V511.79C219.43 521.21 216.7 530.32 211.23 538.07C205.76 545.82 198.17 551.59 189.2 554.78C183.43 556.75 177.35 557.36 171.43 556.45C165.51 555.54 159.73 553.41 154.87 549.92C149.86 546.43 145.91 541.87 143.17 536.55C140.44 531.23 138.92 525.31 138.92 519.38V281.91C139.38 273.4 142.41 265.2 147.88 258.36C153.35 251.68 160.64 246.82 169 244.54C176.14 242.72 183.73 242.72 190.87 244.54C198.01 246.51 204.54 250.16 209.86 255.48L316.65 360.75C316.95 361.05 317.41 361.36 317.71 361.51C318.17 361.66 318.62 361.66 319.08 361.66C319.54 361.66 319.99 361.51 320.3 361.2C320.76 361.05 321.06 360.74 321.36 360.29L397.16 256.84C400.65 252.59 405.06 249.24 410.07 246.97C415.08 244.69 420.55 243.32 426.02 243.32H623.2C628.67 243.32 633.99 244.54 638.85 246.66C643.71 248.94 648.12 252.13 651.76 256.08C655.25 260.03 657.99 264.74 659.51 269.9C661.03 275.06 661.48 280.38 660.73 285.7C659.36 294.81 654.65 303.17 647.51 309.09C640.37 315.01 631.26 318.36 621.84 318.2H511.4C510.79 318.2 510.34 318.35 509.88 318.66C509.42 318.96 508.97 319.42 508.82 319.88C508.52 320.34 508.52 320.94 508.52 321.4C508.05 322.02 508.21 322.62 508.51 323.08Z" fill="#E9E2D1"/>
</svg>
