<?xml version="1.0" encoding="utf-8"?>
<!-- Generator: Adobe Illustrator 27.5.0, SVG Export Plug-In . SVG Version: 6.00 Build 0)  -->
<svg version="1.1" id="Layer_1" xmlns="http://www.w3.org/2000/svg" xmlns:xlink="http://www.w3.org/1999/xlink" x="0px" y="0px"
	 viewBox="0 0 800 800" style="enable-background:new 0 0 800 800;" xml:space="preserve">
<path style="fill:#C8453B;" d="M536.62,752.66H263.38c-119.31,0-216.03-96.72-216.03-216.03V263.37
	c0-119.31,96.72-216.03,216.03-216.03h273.25c119.31,0,216.03,96.72,216.03,216.03v273.25
	C752.66,655.94,655.93,752.66,536.62,752.66z"/>
<path style="fill:#E9E2D1;" d="M508.51,323.08l30.53,36c3.49,4.1,6.53,7.29,7.9,9.27c9.11,9.11,14.28,21.42,14.28,34.18
	c-0.91,15.04-10.63,25.37-19.75,36.46l-21.42,25.06l-11.09,13.06c-0.46,0.46-0.61,1.06-0.76,1.67c-0.15,0.61,0,1.22,0.3,1.67
	c0.3,0.61,0.61,1.06,1.22,1.37c0.46,0.3,1.06,0.46,1.67,0.46h111.5c17.01,0,38.43,14.28,37.22,36c0,9.87-4.1,19.29-11.09,26.28
	c-7.14,6.99-16.71,10.94-26.74,10.94H447.59c-11.54,0-42.38,1.22-51.04-25.06c-1.82-5.47-2.13-11.39-0.76-17.01
	c2.58-8.35,6.53-16.25,11.7-23.24c8.81-13.06,18.23-25.98,27.65-38.58c12.15-16.56,24.46-32.51,36.76-49.37
	c0.46-0.61,0.61-1.22,0.61-1.97c0-0.76-0.3-1.37-0.61-1.97l-44.36-52.1c-0.3-0.3-0.61-0.61-1.06-0.91c-0.46-0.15-0.91-0.3-1.37-0.3
	s-0.91,0.15-1.37,0.3s-0.76,0.46-1.06,0.91c-11.85,15.8-63.95,85.83-75.04,100.11c-11.09,14.13-38.43,15.04-53.62,0l-69.42-68.66
	c-0.46-0.46-1.06-0.76-1.67-0.91s-1.22,0-1.82,0.15c-0.61,0.3-1.06,0.61-1.37,1.22c-0.3,0.46-0.61,1.06-0.46,1.67v132.01
	c0.15,9.42-2.58,18.53-8.05,26.28s-13.06,13.52-22.03,16.71c-5.77,1.97-11.85,2.58-17.77,1.67c-5.92-0.91-11.7-3.04-16.56-6.53
	c-5.01-3.49-8.96-8.05-11.7-13.37c-2.73-5.32-4.25-11.24-4.25-17.17V281.91c0.46-8.51,3.49-16.71,8.96-23.55
	c5.47-6.68,12.76-11.54,21.12-13.82c7.14-1.82,14.73-1.82,21.87,0c7.14,1.97,13.67,5.62,18.99,10.94l106.79,105.27
	c0.3,0.3,0.76,0.61,1.06,0.76c0.46,0.15,0.91,0.15,1.37,0.15s0.91-0.15,1.22-0.46c0.46-0.15,0.76-0.46,1.06-0.91l75.8-103.45
	c3.49-4.25,7.9-7.6,12.91-9.87c5.01-2.28,10.48-3.65,15.95-3.65H623.2c5.47,0,10.79,1.22,15.65,3.34c4.86,2.28,9.27,5.47,12.91,9.42
	c3.49,3.95,6.23,8.66,7.75,13.82s1.97,10.48,1.22,15.8c-1.37,9.11-6.08,17.47-13.22,23.39c-7.14,5.92-16.25,9.27-25.67,9.11H511.4
	c-0.61,0-1.06,0.15-1.52,0.46c-0.46,0.3-0.91,0.76-1.06,1.22c-0.3,0.46-0.3,1.06-0.3,1.52
	C508.05,322.02,508.21,322.62,508.51,323.08z"/>
</svg>
