<?xml version="1.0" encoding="utf-8"?>
<!-- Generator: Adobe Illustrator 27.5.0, SVG Export Plug-In . SVG Version: 6.00 Build 0)  -->
<svg version="1.1" id="Layer_1" xmlns="http://www.w3.org/2000/svg" xmlns:xlink="http://www.w3.org/1999/xlink" x="0px" y="0px"
	 width="768px" height="300.02px" viewBox="0 0 768 300.02" style="enable-background:new 0 0 768 300.02;" xml:space="preserve">
<path style="fill:none;stroke:#0F1010;stroke-width:4.0705;stroke-linecap:round;stroke-linejoin:round;stroke-miterlimit:10;" d="
	M122.19,248.66c0,0-31.48-1.16-40.01,1.44c-17.66,5.38-9.26,11.93,0.89,11.93s60.45,0,60.45,0s7.16,0.27,13.56,2.6
	c5.66,2.05,9.34-1.44,15.14-1.44c5.8,0,56.09,0,56.09,0s11.1-1.63,4.83-8.52c-6.27-6.95-36.6-3.41-36.6-3.41
	s-11.31-18.39-32.38-4.77c2.12-6.06-7.43-12.2-13.22-6.69c0.13-8.52-11.93-13.28-17.58-11.44
	C127.72,230.19,120.9,236.54,122.19,248.66z"/>
<path style="fill:none;stroke:#0F1010;stroke-width:4.0705;stroke-linecap:round;stroke-linejoin:round;stroke-miterlimit:10;" d="
	M313.3,281.86c0,0,33.19,1.63,52.55,0"/>
<line style="fill:none;stroke:#0F1010;stroke-width:4.0705;stroke-linecap:round;stroke-linejoin:round;stroke-miterlimit:10;" x1="404.27" y1="282.55" x2="409.38" y2="282.55"/>
<line style="fill:none;stroke:#0F1010;stroke-width:2.7137;stroke-linecap:round;stroke-linejoin:round;stroke-miterlimit:10;" x1="423.9" y1="285.41" x2="435.83" y2="285.41"/>
<path style="fill:none;stroke:#0F1010;stroke-width:4.0705;stroke-linecap:round;stroke-linejoin:round;stroke-miterlimit:10;" d="
	M436.98,228.85c0,0,27.34,0.89,40.88,0c13.56-0.89,35.29-2.18,41.85-2.18"/>
<line style="fill:none;stroke:#0F1010;stroke-width:4.0705;stroke-linecap:round;stroke-linejoin:round;stroke-miterlimit:10;" x1="281.46" y1="192.13" x2="308.8" y2="192.13"/>
<line style="fill:none;stroke:#0F1010;stroke-width:4.0705;stroke-linecap:round;stroke-linejoin:round;stroke-miterlimit:10;" x1="328.82" y1="190.14" x2="331.76" y2="190.14"/>
<path style="fill:none;stroke:#0F1010;stroke-width:4.0705;stroke-linecap:round;stroke-linejoin:round;stroke-miterlimit:10;" d="
	M349.13,212.82"/>
<line style="fill:none;stroke:#0F1010;stroke-width:4.0705;stroke-linecap:round;stroke-linejoin:round;stroke-miterlimit:10;" x1="360.51" y1="192.13" x2="349.13" y2="192.13"/>
<path style="fill:none;stroke:#0F1010;stroke-width:4.0705;stroke-linecap:round;stroke-linejoin:round;stroke-miterlimit:10;" d="
	M527.64,160.24c0,0-12.81-5.11-21.07,2.18c-8.26,7.29-4.83,15.74,21.07,15.74h36.32c12.54,0,25.08-1.16,37.41-3.33
	c9.74-1.7,23.04-3.07,35.79-1.02c24.19,3.88,35.58-0.34,55.41-0.34h32.98c1.91,0,3.75-0.27,5.51-0.95c2.78-1.1,5.8-3.28,3.33-7.5
	c-4.09-7.03-19.55-9.89-27.34-5.32c0.27-5.11-14.72-18.13-32.92-10.42c-2.65-11.86-13.56-21.41-39.38-10.57
	c0.76-10.91-19.08-23.72-41.85-19.08c-22.77,4.57-34.35,21.75-32.92,37.21C553.27,144.99,528.38,151.05,527.64,160.24z"/>
<path style="fill:none;stroke:#0F1010;stroke-width:4.0705;stroke-linecap:round;stroke-linejoin:round;stroke-miterlimit:10;" d="
	M639.14,239.85c0,0,39.67,4.91,60.45,1.97c20.78-2.94,58.06-3.88,58.06-3.88"/>
<g>
	<g>
		<path style="fill:#0F1010;" d="M61.94,155.27c10.91,2.94,22.22,3.96,33.45,2.99c2.6-0.21,2.6-4.3,0-4.09
			c-10.91,0.89-21.8-0.08-32.43-2.86C60.52,150.7,59.42,154.58,61.94,155.27L61.94,155.27z"/>
	</g>
</g>
<g>
	<g>
		<path style="fill:#0F1010;" d="M134.33,155.95c3.47,2.18,6.82,2.39,10.76,1.91c2.46-0.27,4.83-0.89,7.29-1.02
			c2.46-0.13,4.7,0.68,7.09,0.81c4.15,0.27,6.95-1.23,10.76-2.52c5.85-1.97,11.99-2.46,18.13-2.31c10.97,0.34,21.75,2.6,32.72,3.33
			c12.41,0.89,24.87,0.55,37.28,0.27c2.6-0.08,2.65-4.15,0-4.09c-11.65,0.27-23.3,0.61-34.95-0.08
			c-10.29-0.61-20.44-2.52-30.73-3.28c-9.6-0.68-18,0.55-27.05,3.62c-4.7,1.57-8.52,0-13.22,0.13c-5.46,0.21-11.04,2.94-16.01-0.34
			C134.19,150.97,132.15,154.51,134.33,155.95L134.33,155.95z"/>
	</g>
</g>
<g>
	<g>
		<path style="fill:#0F1010;" d="M645.26,12.42c0.55-0.42,1.5-0.34,2.12-0.34c1.16,0,2.31,0,3.54,0c2.31,0,4.64,0,6.88,0
			c4.7,0,9.4,0,14.11,0c2.6,0,2.6-4.09,0-4.09c-5.25,0-10.49,0-15.74,0c-2.6,0-5.17,0-7.77,0c-2.25,0-4.22,0.08-6.01,1.57
			c-0.89,0.68-0.68,2.18,0,2.86C643.21,13.29,644.45,13.1,645.26,12.42L645.26,12.42z"/>
	</g>
</g>
<g>
	<g>
		<path style="fill:#0F1010;" d="M687.45,9.82c4.02,1.23,7.84-0.13,11.44-1.97c4.15-2.12,7.56-3.68,12.28-2.05
			c4.02,1.36,7.63,3.47,11.78,4.36c4.22,0.89,8.52,0.89,12.81,0.21c2.6-0.42,1.5-4.36-1.1-3.96c-4.36,0.68-8.87,0.42-13.09-0.89
			c-3.75-1.1-7.09-3.2-10.84-4.15c-3.62-0.95-6.95-0.42-10.29,1.1c-3.75,1.7-7.56,4.7-11.93,3.41
			C686.01,5.12,684.93,9.06,687.45,9.82L687.45,9.82z"/>
	</g>
</g>
<g>
	<g>
		<path style="fill:#0F1010;" d="M597.43,8.32c-2.86,1.97-5.59,4.15-8.24,6.54c-0.81,0.68-0.76,2.18,0,2.86
			c0.81,0.76,2.05,0.76,2.86,0c1.23-1.1,2.46-2.18,3.75-3.2c0.13-0.13,0.27-0.27,0.47-0.34c0.08-0.08,0.13-0.13,0.21-0.21
			c0.21-0.21-0.27,0.21-0.08,0.08c0.34-0.27,0.68-0.47,1.02-0.76c0.68-0.47,1.36-0.95,2.05-1.44c0.42-0.34,0.81-0.68,0.95-1.23
			c0.13-0.47,0.08-1.16-0.21-1.57C599.66,8.19,598.37,7.7,597.43,8.32L597.43,8.32z"/>
	</g>
</g>
<g>
	<g>
		<path style="fill:#0F1010;" d="M579.01,4.63c-3.2,2.6-6.27,5.38-9.06,8.32c-0.76,0.76-0.81,2.12,0,2.86s2.12,0.81,2.86,0
			c2.86-2.99,5.85-5.8,9.06-8.32c0.81-0.68,0.76-2.18,0-2.86C581,3.82,579.9,3.89,579.01,4.63L579.01,4.63z"/>
	</g>
</g>
<g>
	<g>
		<path style="fill:#0F1010;" d="M467.72,110.32c7.09-0.61,14.17-1.23,21.26-1.78c1.1-0.08,2.05-0.89,2.05-2.05
			c0-1.02-0.95-2.12-2.05-2.05c-7.09,0.61-14.17,1.23-21.26,1.78c-1.1,0.08-2.05,0.89-2.05,2.05
			C465.67,109.3,466.64,110.38,467.72,110.32L467.72,110.32z"/>
	</g>
</g>
<g>
	<g>
		<path style="fill:#0F1010;" d="M505.34,104.87c4.02,2.18,8.71,2.86,13.22,1.91c1.02-0.21,1.78-1.5,1.44-2.52
			c-0.34-1.1-1.36-1.63-2.52-1.44c-0.27,0.08-0.55,0.08-0.81,0.13c-0.47,0.08,0.21,0-0.27,0.08c-0.47,0.08-0.95,0.08-1.44,0.08
			c-0.47,0-0.95,0-1.44,0c-0.27,0-0.55-0.08-0.81-0.08c-0.13,0-0.27,0-0.42-0.08c0.21,0,0.21,0,0.08,0
			c-0.95-0.21-1.84-0.34-2.73-0.68c-0.21-0.08-0.47-0.13-0.68-0.21c-0.13-0.08-0.27-0.08-0.34-0.13c0.13,0.08,0.13,0.08,0,0
			c-0.47-0.21-0.89-0.42-1.36-0.68c-0.95-0.47-2.25-0.27-2.78,0.76C504.11,103.03,504.39,104.32,505.34,104.87L505.34,104.87z"/>
	</g>
</g>
<g>
	<g>
		<path style="fill:#0F1010;" d="M616.37,135.31c-3.62,0.76-6.61,3.62-8.79,6.4c-2.18,2.86-3.88,6.01-5.51,9.21
			c-0.47,0.95-0.27,2.18,0.76,2.78c0.89,0.55,2.25,0.27,2.78-0.76c1.5-2.86,2.99-5.8,4.91-8.37c1.63-2.25,4.09-4.77,6.95-5.32
			c1.1-0.21,1.7-1.5,1.44-2.52C618.55,135.58,617.45,135.1,616.37,135.31L616.37,135.31z"/>
	</g>
</g>
<g>
	<g>
		<path style="fill:#0F1010;" d="M621.81,145.39c-1.84,1.78-3.62,3.68-5.25,5.66c-0.34,0.42-0.61,0.89-0.61,1.44
			c0,0.47,0.21,1.1,0.61,1.44c0.42,0.34,0.89,0.61,1.44,0.61c0.47,0,1.1-0.21,1.44-0.61c1.63-1.97,3.41-3.88,5.25-5.66
			c0.76-0.76,0.81-2.18,0-2.86C623.85,144.65,622.64,144.65,621.81,145.39L621.81,145.39z"/>
	</g>
</g>
<path style="fill:none;stroke:#0F1010;stroke-width:4.0705;stroke-linecap:round;stroke-linejoin:round;stroke-miterlimit:10;" d="
	M158.55,91.4c-63.39-2.14-97.81,0.66-107.43-2.99c-9.6-3.64-13.13-15.52,7.63-15.52s47.15-1.72,72.57-0.53
	c-4.24-5.72-10.21-13.66-4.24-19.87c5.91-6.21,15.21-6.02,26.56-0.78c0-7.69,8.77-23.87,21.48-27.51
	c12.71-3.64,33.61-8.96,56.45,13.6c1.08-1.55,10.44-17.07,29.36-16.46c18.92,0.61,30.97,10.44,31.14,23.98
	c5.55-5.91,28.95-6.5,34.91,0c5.97,6.5,5.19,14.26,5.19,14.26s62.06-3.28,62.06,13.13c0,8.83-26.79,10.93-40.63,10.38
	C339.61,82.56,221.93,93.54,158.55,91.4z"/>
<path style="fill:none;stroke:#0F1010;stroke-width:4.0705;stroke-linecap:round;stroke-linejoin:round;stroke-miterlimit:10;" d="
	M184.48,34.52c0,0-10.15,5.3-13.79,17.37"/>
<path style="fill:none;stroke:#0F1010;stroke-width:4.0705;stroke-linecap:round;stroke-linejoin:round;stroke-miterlimit:10;" d="
	M190.81,44.42c0,0-7.41,6.14-7.82,11.88"/>
<path style="fill:none;stroke:#0F1010;stroke-width:4.0705;stroke-linecap:round;stroke-linejoin:round;stroke-miterlimit:10;" d="
	M292.39,77.92c0,0,56.34-1.25,82.18-4.47"/>
<line style="fill:none;stroke:#0F1010;stroke-width:4.0705;stroke-linecap:round;stroke-linejoin:round;stroke-miterlimit:10;" x1="260.39" y1="79.17" x2="271.85" y2="79.17"/>
<line style="fill:none;stroke:#0F1010;stroke-width:4.0705;stroke-linecap:round;stroke-linejoin:round;stroke-miterlimit:10;" x1="279.43" y1="79.17" x2="284.51" y2="79.17"/>
<line style="fill:none;stroke:#0F1010;stroke-width:4.0705;stroke-linecap:round;stroke-linejoin:round;stroke-miterlimit:10;" x1="4.69" y1="269.23" x2="24.24" y2="269.23"/>
<line style="fill:none;stroke:#0F1010;stroke-width:4.0705;stroke-linecap:round;stroke-linejoin:round;stroke-miterlimit:10;" x1="33.18" y1="269.23" x2="40.47" y2="269.23"/>
<path style="fill:none;stroke:#0F1010;stroke-width:4.0705;stroke-linecap:round;stroke-linejoin:round;stroke-miterlimit:10;" d="
	M117.56,231.29c0,0,1.91-6.74,8.92-10.15"/>
<path style="fill:none;stroke:#0F1010;stroke-width:4.0705;stroke-linecap:round;stroke-linejoin:round;stroke-miterlimit:10;" d="
	M344.52,19c0,0,7.77,2.08,9.91,8.6"/>
</svg>
