<svg width="33" height="33" viewBox="0 0 33 33" fill="none" xmlns="http://www.w3.org/2000/svg">
<path d="M1.88754 26.8258C2.24645 26.8762 2.59641 26.7505 2.92718 26.4512C3.41643 26.0082 3.94174 25.5856 4.44927 25.1771C4.65009 25.0156 4.85103 24.8542 5.05044 24.6909C5.31444 24.475 5.58098 24.262 5.85739 24.0412L6.13316 23.8205C6.33474 24.0862 6.53889 24.3473 6.73702 24.6009C7.3534 25.3894 7.93666 26.1358 8.41912 26.9742L8.37538 27.0142C8.30324 27.0799 8.24146 27.1364 8.17674 27.1892C7.81519 27.4839 7.45279 27.7779 7.08953 28.0714C6.33923 28.6796 5.56322 29.3082 4.80831 29.9374C4.4132 30.2666 4.22977 30.5601 4.23118 30.8608C4.23272 31.1652 4.42446 31.4631 4.83466 31.7984C5.44264 32.3108 6.17149 32.6564 6.95075 32.8019C7.46081 32.8933 7.97779 32.9398 8.49587 32.9409C8.97769 32.9407 9.45862 32.8991 9.93341 32.8164C13.5319 32.1936 16.1224 28.8191 15.8308 25.1335C15.7769 24.3756 15.596 23.6324 15.2956 22.9354L23.2844 16.2727C23.4792 16.3216 23.6648 16.3719 23.8448 16.4204C24.2374 16.5341 24.6356 16.6273 25.0378 16.6993C25.9106 16.8337 26.8012 16.7901 27.657 16.5712C28.5127 16.3522 29.3162 15.9624 30.0197 15.4248C30.8018 14.8405 31.4593 14.1038 31.9537 13.2586C32.4481 12.4134 32.7691 11.4769 32.8976 10.5044C33.1483 8.71826 32.5795 7.13008 32.056 5.94633C32.0348 5.89838 32.0121 5.85084 31.9896 5.80327C31.9273 5.68396 31.8778 5.55822 31.8422 5.42826C31.7544 5.04644 31.605 4.81081 31.3851 4.70782C31.1827 4.61307 30.9315 4.64183 30.6383 4.79304C30.2456 5.01127 29.8839 5.28154 29.5625 5.59662C28.834 6.27622 28.1065 6.97699 27.4028 7.65491C27.1539 7.8946 26.9052 8.13371 26.6571 8.37227L23.4104 5.62073L23.4181 5.6062C23.4402 5.55918 23.4662 5.51403 23.4956 5.47131C24.2857 4.42563 25.2456 3.21404 26.3836 2.14927C26.5379 2.01565 26.6759 1.86422 26.7951 1.6981C26.9913 1.40058 26.9614 1.0777 26.7225 0.912825C26.6686 0.875528 26.6145 0.83777 26.56 0.799529C26.193 0.541716 25.8136 0.275796 25.3889 0.162487C24.8005 0.0198638 24.1934 -0.0276074 23.5904 0.021937C22.1427 0.0957116 20.7318 0.507902 19.4692 1.22584C17.1348 2.57832 15.9451 4.54939 15.9331 7.08433C15.9263 7.92164 16.1356 8.74635 16.5406 9.47748C13.9306 11.5335 11.5958 13.4207 9.51336 15.5898C8.46094 15.0571 7.36555 15.1061 6.42748 15.2266C3.96783 15.5434 2.16818 16.709 1.07829 18.6918C0.261499 20.1691 -0.0992563 21.8584 0.0422316 23.5436C0.116929 24.5193 0.355729 25.3193 0.77245 25.9893C1.06753 26.4627 1.47351 26.7672 1.88754 26.8258ZM10.7961 16.2866C11.6134 15.5941 12.4323 14.9037 13.2528 14.2156C14.18 13.4358 15.106 12.6547 16.0309 11.8719C16.3484 11.6023 16.6605 11.3177 16.9622 11.0414C17.2333 10.7936 17.5134 10.5375 17.7953 10.2949C18.0572 10.0693 18.0511 9.81883 18.0049 9.58139C17.7363 8.19036 17.71 6.96204 17.9255 5.82612C18.031 5.23194 18.2531 4.66494 18.5787 4.15826C18.9042 3.65158 19.3267 3.21539 19.8216 2.87518C21.2431 1.8669 22.9644 1.37921 24.6992 1.49315C24.8112 1.5025 24.9225 1.52089 25.0317 1.5481C24.955 1.62867 24.888 1.70006 24.8213 1.77199C24.5412 2.07466 24.2605 2.37674 23.9792 2.6783C23.2693 3.44117 22.5353 4.23021 21.8246 5.01718C21.3443 5.54905 21.3471 5.92754 21.8352 6.46379C22.729 7.44567 23.6145 8.37495 24.6794 9.48767C24.874 9.67942 25.0888 9.84938 25.3197 9.99454C26.1474 10.5488 26.5148 10.6062 27.3534 9.91926C28.108 9.30129 28.8517 8.64607 29.571 8.01237C29.878 7.74183 30.1856 7.47188 30.494 7.20254C30.6154 7.09722 30.7359 6.99103 30.8716 6.87127L30.9068 6.84044C31.1639 8.00795 31.3848 9.11683 31.0997 10.2307C30.3808 13.0408 28.4371 14.5325 25.4788 14.5458C25.1224 14.5483 24.7601 14.5376 24.4091 14.5276C24.0082 14.5166 23.5933 14.5055 23.1848 14.5109C22.9229 14.5118 22.668 14.5953 22.4557 14.7499L22.0687 15.0639C20.8367 16.0627 19.563 17.0953 18.3486 18.1576C17.4385 18.954 16.5412 19.7948 15.6733 20.6076C15.2896 20.9673 14.9048 21.3263 14.5189 21.6844C14.5077 21.6952 14.4971 21.7066 14.487 21.7187C14.4838 21.7229 14.4802 21.7269 14.4762 21.7307C14.4176 21.7822 14.3523 21.8319 14.2828 21.8837C14.1067 21.9944 13.959 22.1454 13.8514 22.3243C13.7645 22.5434 13.7263 22.7791 13.7395 23.0147C13.7382 23.0838 13.737 23.1525 13.7332 23.2194C13.7204 23.4373 13.7129 23.6556 13.7052 23.8737C13.6945 24.1776 13.6833 24.4915 13.658 24.7975C13.6395 25.0216 13.6255 25.2472 13.6117 25.4731C13.5909 26.0978 13.5177 26.7197 13.3931 27.332C12.9268 29.3147 11.6211 30.5289 9.51222 30.9408C8.66981 31.1211 7.79975 31.1265 6.95522 30.9565C6.78203 30.9195 6.6063 30.8654 6.4028 30.8027C6.36839 30.7919 6.33296 30.7811 6.29651 30.77C6.516 30.6003 6.7313 30.4347 6.94244 30.2728C7.59694 29.77 8.21484 29.2957 8.8192 28.8008C9.13313 28.5328 9.431 28.2464 9.71123 27.9429C9.80588 27.8442 9.90067 27.7456 9.99647 27.6485C10.3711 27.2686 10.4214 26.7931 10.1418 26.2733C9.95603 25.9129 9.73126 25.5744 9.47154 25.2639C8.74618 24.424 7.97502 23.5642 7.17905 22.7082C6.59503 22.0799 6.22731 22.0581 5.5393 22.6098C4.87537 23.1426 4.2129 23.6774 3.55188 24.2139C3.17327 24.5203 2.7945 24.8266 2.41555 25.1328C2.34009 25.1936 2.26207 25.2517 2.16984 25.3211C2.16613 25.3238 2.1623 25.3266 2.15859 25.3296C1.84341 24.2602 1.80961 23.1267 2.06048 22.0402C2.17233 21.5537 2.31988 21.0763 2.50189 20.6119C3.21229 18.8107 4.54992 17.818 6.59145 17.5768L7.46019 17.4737C8.23262 17.3816 9.00507 17.2896 9.77801 17.203C9.92117 17.201 10.0603 17.155 10.1767 17.071C10.2931 16.9869 10.3812 16.8691 10.4292 16.7331C10.5139 16.5566 10.6398 16.4034 10.7961 16.2866Z" fill="#242827"/>
</svg>
