<?xml version="1.0" encoding="utf-8"?>
<!-- Generator: Adobe Illustrator 27.5.0, SVG Export Plug-In . SVG Version: 6.00 Build 0)  -->
<svg version="1.1" id="Layer_1" xmlns="http://www.w3.org/2000/svg" xmlns:xlink="http://www.w3.org/1999/xlink" x="0px" y="0px"
	 width="800px" height="800px" viewBox="0 0 800 800" style="enable-background:new 0 0 800 800;" xml:space="preserve">
<g>
	<path style="fill:#C8453B;" d="M536.62,752.66H263.38c-119.31,0-216.03-96.72-216.03-216.03V263.37
		c0-119.31,96.72-216.03,216.03-216.03h273.25c119.31,0,216.03,96.72,216.03,216.03v273.25
		C752.66,655.94,655.93,752.66,536.62,752.66z"/>
	<path style="fill:#E9E2D1;" d="M445.54,368.1l156.28-168.84H550.6L422.65,337.49L319.23,199.26H181.54L346.46,419.8L178.95,600.74
		h51.22l139.18-150.37l112.43,150.37h137.69L445.54,368.1z M300.34,236.96l243.88,326.12h-43.56L256.78,236.96H300.34z"/>
</g>
</svg>
